<mxfile host="app.diagrams.net" agent="Mozilla/5.0 (Windows NT 10.0; Win64; x64) AppleWebKit/537.36 (KHTML, like Gecko) Chrome/137.0.0.0 Safari/537.36 Edg/137.0.0.0" version="26.2.14">
  <diagram name="第 1 页" id="vPlIOLLUKM6bT6ggozFT">
    <mxGraphModel dx="977" dy="514" grid="1" gridSize="10" guides="1" tooltips="1" connect="1" arrows="1" fold="1" page="1" pageScale="1" pageWidth="827" pageHeight="1169" math="0" shadow="0">
      <root>
        <mxCell id="0" />
        <mxCell id="1" parent="0" />
        <mxCell id="W-skbeQEMJc8F4TyrRdm-3" style="edgeStyle=orthogonalEdgeStyle;rounded=0;orthogonalLoop=1;jettySize=auto;html=1;exitX=1;exitY=0.5;exitDx=0;exitDy=0;entryX=0;entryY=0.5;entryDx=0;entryDy=0;" edge="1" parent="1" source="W-skbeQEMJc8F4TyrRdm-1" target="W-skbeQEMJc8F4TyrRdm-2">
          <mxGeometry relative="1" as="geometry" />
        </mxCell>
        <mxCell id="W-skbeQEMJc8F4TyrRdm-1" value="&lt;div&gt;表单设计器&lt;/div&gt;&lt;div&gt;（&lt;span style=&quot;background-color: transparent; color: light-dark(rgb(0, 0, 0), rgb(255, 255, 255));&quot;&gt;view&lt;/span&gt;&lt;span style=&quot;background-color: transparent; color: light-dark(rgb(0, 0, 0), rgb(255, 255, 255));&quot;&gt;）&lt;/span&gt;&lt;/div&gt;" style="rounded=1;whiteSpace=wrap;html=1;" vertex="1" parent="1">
          <mxGeometry x="60" y="180" width="120" height="60" as="geometry" />
        </mxCell>
        <mxCell id="W-skbeQEMJc8F4TyrRdm-5" style="edgeStyle=orthogonalEdgeStyle;rounded=0;orthogonalLoop=1;jettySize=auto;html=1;exitX=1;exitY=0.5;exitDx=0;exitDy=0;entryX=0;entryY=0.5;entryDx=0;entryDy=0;" edge="1" parent="1" source="W-skbeQEMJc8F4TyrRdm-2" target="W-skbeQEMJc8F4TyrRdm-4">
          <mxGeometry relative="1" as="geometry" />
        </mxCell>
        <mxCell id="W-skbeQEMJc8F4TyrRdm-2" value="&lt;div&gt;调用后端方法&lt;/div&gt;&lt;div&gt;（&lt;span style=&quot;background-color: transparent; color: light-dark(rgb(0, 0, 0), rgb(255, 255, 255));&quot;&gt;JavaScript&lt;/span&gt;&lt;span style=&quot;background-color: transparent; color: light-dark(rgb(0, 0, 0), rgb(255, 255, 255));&quot;&gt;）&lt;/span&gt;&lt;/div&gt;" style="rounded=1;whiteSpace=wrap;html=1;" vertex="1" parent="1">
          <mxGeometry x="260" y="180" width="120" height="60" as="geometry" />
        </mxCell>
        <mxCell id="W-skbeQEMJc8F4TyrRdm-7" style="edgeStyle=orthogonalEdgeStyle;rounded=0;orthogonalLoop=1;jettySize=auto;html=1;exitX=0.5;exitY=1;exitDx=0;exitDy=0;entryX=0.5;entryY=0;entryDx=0;entryDy=0;" edge="1" parent="1" source="W-skbeQEMJc8F4TyrRdm-4" target="W-skbeQEMJc8F4TyrRdm-6">
          <mxGeometry relative="1" as="geometry" />
        </mxCell>
        <mxCell id="W-skbeQEMJc8F4TyrRdm-4" value="view.processor.findSysAccountInfoList(&quot;2,3&quot;,&quot;&quot;,&quot;&quot;)" style="rounded=1;whiteSpace=wrap;html=1;" vertex="1" parent="1">
          <mxGeometry x="440" y="180" width="280" height="60" as="geometry" />
        </mxCell>
        <mxCell id="W-skbeQEMJc8F4TyrRdm-11" style="edgeStyle=orthogonalEdgeStyle;rounded=0;orthogonalLoop=1;jettySize=auto;html=1;exitX=0;exitY=0.5;exitDx=0;exitDy=0;entryX=1;entryY=0.5;entryDx=0;entryDy=0;" edge="1" parent="1" source="W-skbeQEMJc8F4TyrRdm-6" target="W-skbeQEMJc8F4TyrRdm-10">
          <mxGeometry relative="1" as="geometry" />
        </mxCell>
        <mxCell id="W-skbeQEMJc8F4TyrRdm-6" value="后端服务&lt;br&gt;（server）" style="rounded=1;whiteSpace=wrap;html=1;" vertex="1" parent="1">
          <mxGeometry x="520" y="300" width="120" height="60" as="geometry" />
        </mxCell>
        <mxCell id="W-skbeQEMJc8F4TyrRdm-17" style="edgeStyle=orthogonalEdgeStyle;rounded=0;orthogonalLoop=1;jettySize=auto;html=1;exitX=0.5;exitY=1;exitDx=0;exitDy=0;entryX=0.5;entryY=0;entryDx=0;entryDy=0;" edge="1" parent="1" source="W-skbeQEMJc8F4TyrRdm-8" target="W-skbeQEMJc8F4TyrRdm-13">
          <mxGeometry relative="1" as="geometry" />
        </mxCell>
        <mxCell id="W-skbeQEMJc8F4TyrRdm-8" value="添加方法&lt;div&gt;（自定义前端方法名称）&lt;/div&gt;" style="rounded=1;whiteSpace=wrap;html=1;" vertex="1" parent="1">
          <mxGeometry x="70" y="300" width="120" height="60" as="geometry" />
        </mxCell>
        <mxCell id="W-skbeQEMJc8F4TyrRdm-12" style="edgeStyle=orthogonalEdgeStyle;rounded=0;orthogonalLoop=1;jettySize=auto;html=1;exitX=0;exitY=0.5;exitDx=0;exitDy=0;entryX=1;entryY=0.5;entryDx=0;entryDy=0;" edge="1" parent="1" source="W-skbeQEMJc8F4TyrRdm-10" target="W-skbeQEMJc8F4TyrRdm-8">
          <mxGeometry relative="1" as="geometry" />
        </mxCell>
        <mxCell id="W-skbeQEMJc8F4TyrRdm-10" value="添加客开或标准的BO依赖&lt;br&gt;（BOImpl）" style="rounded=1;whiteSpace=wrap;html=1;" vertex="1" parent="1">
          <mxGeometry x="270" y="300" width="120" height="60" as="geometry" />
        </mxCell>
        <mxCell id="W-skbeQEMJc8F4TyrRdm-18" style="edgeStyle=orthogonalEdgeStyle;rounded=0;orthogonalLoop=1;jettySize=auto;html=1;exitX=1;exitY=0.5;exitDx=0;exitDy=0;entryX=0;entryY=0.5;entryDx=0;entryDy=0;" edge="1" parent="1" source="W-skbeQEMJc8F4TyrRdm-13" target="W-skbeQEMJc8F4TyrRdm-14">
          <mxGeometry relative="1" as="geometry" />
        </mxCell>
        <mxCell id="W-skbeQEMJc8F4TyrRdm-13" value="BO&lt;div&gt;(Interface)&lt;/div&gt;" style="rounded=1;whiteSpace=wrap;html=1;" vertex="1" parent="1">
          <mxGeometry x="70" y="440" width="120" height="60" as="geometry" />
        </mxCell>
        <mxCell id="W-skbeQEMJc8F4TyrRdm-19" style="edgeStyle=orthogonalEdgeStyle;rounded=0;orthogonalLoop=1;jettySize=auto;html=1;exitX=1;exitY=0.5;exitDx=0;exitDy=0;entryX=0;entryY=0.5;entryDx=0;entryDy=0;" edge="1" parent="1" source="W-skbeQEMJc8F4TyrRdm-14" target="W-skbeQEMJc8F4TyrRdm-15">
          <mxGeometry relative="1" as="geometry" />
        </mxCell>
        <mxCell id="W-skbeQEMJc8F4TyrRdm-14" value="BOImpl" style="rounded=1;whiteSpace=wrap;html=1;" vertex="1" parent="1">
          <mxGeometry x="310" y="440" width="120" height="60" as="geometry" />
        </mxCell>
        <mxCell id="W-skbeQEMJc8F4TyrRdm-20" style="edgeStyle=orthogonalEdgeStyle;rounded=0;orthogonalLoop=1;jettySize=auto;html=1;exitX=0.5;exitY=1;exitDx=0;exitDy=0;entryX=0.5;entryY=0;entryDx=0;entryDy=0;" edge="1" parent="1" source="W-skbeQEMJc8F4TyrRdm-15" target="W-skbeQEMJc8F4TyrRdm-16">
          <mxGeometry relative="1" as="geometry" />
        </mxCell>
        <mxCell id="W-skbeQEMJc8F4TyrRdm-15" value="DAO&lt;br&gt;&lt;div&gt;(Interface)&lt;/div&gt;" style="rounded=1;whiteSpace=wrap;html=1;" vertex="1" parent="1">
          <mxGeometry x="520" y="440" width="120" height="60" as="geometry" />
        </mxCell>
        <mxCell id="W-skbeQEMJc8F4TyrRdm-16" value="DAOImpl&lt;div&gt;(具体的实现方法)&lt;/div&gt;" style="rounded=1;whiteSpace=wrap;html=1;" vertex="1" parent="1">
          <mxGeometry x="520" y="585" width="120" height="60" as="geometry" />
        </mxCell>
      </root>
    </mxGraphModel>
  </diagram>
</mxfile>
